<svg width="140" height="40" viewBox="0 0 140 40" fill="none" xmlns="http://www.w3.org/2000/svg">
<path d="M70.8593 38.5242C70.8593 38.6622 70.8593 38.8033 70.8593 38.9443C70.866 38.8033 70.866 38.6712 70.8593 38.5242Z" fill="#FFFEFE"/>
<path d="M69.7725 39.0854C69.7725 38.9503 69.8194 38.8183 69.8395 38.6832C69.7724 38.8183 69.7725 38.9503 69.7725 39.0854Z" fill="#FFFEFE"/>
<path d="M101.344 39.2234C101.398 39.1574 101.445 39.0944 101.492 39.0314L101.344 39.2234Z" fill="#FDFDFD"/>
<path d="M106.537 35.2288L106.383 35.3698C106.43 35.3218 106.483 35.2768 106.537 35.2288Z" fill="#FDFDFD"/>
<path d="M64.09 34.3795C64.1359 34.4004 64.1764 34.4235 64.2107 34.4485L64.0967 34.4305L64.09 34.3795Z" fill="#CF2327"/>
<path d="M68.0818 35.6459V35.3608L68.3837 35.0607L69.7255 34.7065L70.6513 34.6915L71.6777 34.9256L71.9125 35.0277L71.9931 36.1531C70.0408 36.7324 68.9338 36.5853 68.0818 35.6459Z" fill="#CF2327"/>
<path d="M65.8611 30.1266C65.9282 30.2346 65.9885 30.3427 66.0556 30.4477L65.8611 30.1266Z" fill="#FFFEFE"/>
<path d="M136.23 34.8236L138.914 38.053C139.759 39.0794 139.498 39.6466 138.055 39.9017C136.358 40.2019 134.862 39.8057 134.03 38.8333C133.359 38.0049 132.608 37.1796 132.017 36.3422C131.93 36.1324 131.667 35.9455 131.281 35.8199C130.896 35.6943 130.417 35.6396 129.944 35.667C124.376 35.697 118.81 35.697 113.246 35.667C112.72 35.6366 112.188 35.697 111.758 35.8358C111.328 35.9747 111.033 36.1815 110.931 36.4143C110.26 37.3146 109.475 38.215 108.737 39.1154C108.557 39.3559 108.212 39.5647 107.75 39.7119C107.289 39.8591 106.735 39.9371 106.168 39.9347C104.028 39.9708 102.988 39.3495 103.726 38.4341C104.571 37.4017 105.517 36.3873 106.409 35.3668L106.564 35.2258C106.617 35.1327 106.678 35.0397 106.738 34.9436C106.799 34.8926 106.852 34.8416 106.906 34.7906C107.979 33.458 109.06 32.1285 110.113 30.7929C110.334 30.5108 110.442 30.2137 110.609 29.9225L112.367 28.1578L112.823 27.6026L113.729 26.5761C113.77 26.5617 113.801 26.5417 113.815 26.519C113.83 26.4963 113.828 26.4722 113.809 26.4501L113.95 26.306L114.152 26.0599L114.292 25.8768C114.339 25.8108 114.393 25.7478 114.44 25.6818L114.574 25.6578V25.5947C114.675 25.4477 114.782 25.2946 114.883 25.1535C115.554 24.3462 116.225 23.5419 116.895 22.7375L117.378 22.1373C117.472 22.0412 117.573 21.9452 117.667 21.8522L118.284 21.2729L118.479 21.1469C118.529 21.1439 118.575 21.1321 118.607 21.1142C118.638 21.0962 118.652 21.0735 118.646 21.0508L121.491 20.4116C123.504 20.5556 124.617 21.1529 125.295 21.9692C126.771 23.74 128.263 25.5087 129.77 27.2754C131.912 29.7865 134.066 32.3025 136.23 34.8236ZM122.403 24.2832L121.907 23.743L121.773 23.5599L121.377 23.3858L121.169 23.5569L120.787 24.0731C120.606 24.2862 120.431 24.4993 120.25 24.7094C119.15 26.0539 118.036 27.3925 116.949 28.737C115.822 30.1296 114.695 31.5192 113.648 32.9388C113.494 33.1489 112.521 33.5931 114.084 33.6471H114.406L117.64 33.6171H124.684L128.24 33.6471C129.81 33.6831 129.904 33.6171 129.233 32.9148L129.012 32.6147L128.891 32.4826C127.589 30.8539 126.286 29.2253 124.98 27.5966C124.148 26.5401 123.311 25.4827 122.471 24.4242C122.492 24.4004 122.497 24.3743 122.485 24.3491C122.473 24.324 122.445 24.301 122.403 24.2832Z" fill="#EDA61E"/>
<path d="M69.645 38.2391C69.7054 38.3861 69.759 38.5392 69.8193 38.6832C69.8797 38.8273 69.7724 38.9504 69.7523 39.0854C68.9472 39.7667 67.4981 39.7997 66.049 39.7997C60.9905 39.7997 55.9253 39.7997 50.8668 39.7997C50.2831 39.7997 49.6994 39.8207 49.1158 39.8297H48.096C45.9089 39.8087 43.7085 39.8297 41.5281 39.7517C39.8643 39.7007 38.9988 39.2775 39.133 38.6712C39.2873 37.9779 40.3138 37.7709 41.7159 37.7709C44.1714 37.7709 46.6335 37.7228 49.0957 37.6988H49.1963L49.2433 37.6598L55.1739 37.7469H63.305L57.6092 34.0283L49.7532 28.7191C46.9623 26.8103 44.1915 24.8955 41.3536 23.0017C40.3406 22.3264 39.5557 21.6541 40.1058 20.8138L40.7767 20.7387L41.0584 20.6697L42.0447 20.5977L49.364 20.5436C51.7456 20.5737 54.1273 20.6217 56.5157 20.6337C59.8231 20.6517 63.1306 20.6337 66.4381 20.6517C67.0033 20.6385 67.5572 20.7258 67.9793 20.8944C68.4015 21.063 68.6577 21.2994 68.6923 21.5521C68.8533 22.1223 68.0214 22.4284 66.8808 22.5635C66.3094 22.6166 65.7314 22.6547 65.15 22.6775H50.3837H49.1023H46.506L48.9682 24.0611C49.1292 24.2232 49.2902 24.3883 49.4579 24.5503L49.7263 24.6914L50.0215 24.8384L50.4106 25.1386L50.6656 25.2826L51.0748 25.5647L51.3096 25.7208L51.7322 26.0209L51.9536 26.162C52.2287 26.3601 52.5104 26.5552 52.7922 26.7622C52.7862 26.7726 52.7855 26.7834 52.79 26.7939C52.7945 26.8044 52.8041 26.8143 52.8183 26.8229C52.8324 26.8316 52.8506 26.8387 52.8717 26.8437C52.8927 26.8488 52.916 26.8517 52.9399 26.8523L53.443 27.1974C53.443 27.2484 53.443 27.2785 53.5705 27.2905L55.147 28.3259L56.4486 29.1933L58.6625 30.6459V30.6279L59.0181 30.928L59.8165 31.4832L60.8295 32.2005L61.8693 32.8158C62.4374 33.2159 63.0099 33.6221 63.5868 34.0343L64.09 34.3884V34.4395L64.204 34.4575L65.3647 35.2528V35.3038L65.4787 35.3248C65.4874 35.3443 65.5075 35.3623 65.537 35.3771C65.5665 35.3918 65.6043 35.4028 65.6464 35.4089L69.645 38.2391Z" fill="#CF2327"/>
<path d="M100.694 21.9542L100.472 22.2543L99.9019 22.6985L99.6 22.8906L99.4055 22.9836L99.2645 23.1247L99.0029 23.2747L98.6138 23.5749L95.6418 25.5767C94.9173 26.0629 94.1949 26.5491 93.4748 27.0353L93.2534 27.1704L89.6239 29.6374C85.6791 32.2365 81.7455 34.8476 77.823 37.4707C77.7224 37.5367 77.7626 37.6448 77.7291 37.7708H93.2198H99.2578L100.814 37.9749L101.264 38.143C101.351 38.272 101.445 38.4041 101.539 38.5331V38.9653L101.465 39.0013L101.519 39.0434L101.371 39.2354C101.317 39.2835 101.264 39.3345 101.217 39.3855L100.922 39.5296L100.251 39.7156L99.4591 39.8147C91.158 39.8147 82.8636 39.8147 74.5759 39.8147C73.0463 39.8147 71.5233 39.7787 70.9061 38.9713C70.9061 38.8303 70.9061 38.6892 70.9061 38.5511C70.9061 38.4131 71.0001 38.3591 71.0538 38.266L73.5159 36.5343C73.6397 36.4889 73.7542 36.4387 73.858 36.3842C80.388 31.9724 86.9113 27.5585 93.4279 23.1427C93.5892 22.9974 93.7194 22.8457 93.8169 22.6895C89.9593 22.6895 86.2762 22.6895 82.593 22.6895C79.4935 22.6715 76.3873 22.6145 73.2878 22.5724C72.4157 22.2723 71.6508 21.9392 72.1003 21.3719C72.5498 20.8047 73.5897 20.6727 74.7839 20.6817C75.1059 20.6817 75.4213 20.6817 75.7433 20.6817L98.3454 20.6606L99.6201 20.7297L99.9087 20.7927L100.244 20.8947L100.915 21.6481L100.694 21.9542Z" fill="#EDA61E"/>
<path d="M130.776 11.6179L121.344 9.10582L133.057 5.97852L134.399 5.71741C136.673 7.98036 136.875 10.1893 134.265 12.4582L130.776 11.6179ZM131.179 8.5896C131.179 8.69765 131.179 8.8027 131.179 8.91074C131.742 9.09682 132.4 9.46897 132.843 9.42395C133.513 9.35492 133.99 8.99178 134.553 8.75167C134.003 8.50857 133.52 8.11841 132.889 8.06438C132.427 8.02237 131.762 8.40052 131.179 8.5896ZM128.388 9.0488C127.717 8.86272 127.301 8.63463 126.992 8.66764C126.684 8.70065 126.06 8.96776 126.1 9.12383C126.174 9.22766 126.307 9.32118 126.486 9.39531C126.664 9.46945 126.883 9.5217 127.12 9.54701C127.422 9.55901 127.804 9.2919 128.388 9.0488ZM133.809 11.0356C133.138 10.7835 132.816 10.5374 132.467 10.5314C132.118 10.5254 131.668 10.7805 131.548 10.9606C131.487 11.0566 132.017 11.3388 132.312 11.3478C132.608 11.3568 133.104 11.1917 133.809 11.0356Z" fill="#CF2327"/>
<path d="M111.119 7.11298L116.734 8.65863L118.378 9.09982C115.5 9.87114 112.837 10.5854 110.166 11.2967L109.227 11.5578L106.671 12.2601L105.765 12.4882H105.43C103.008 10.2583 102.747 8.02836 105.282 5.7384L111.119 7.11298ZM107.08 9.149V9.47002C107.703 9.65009 108.033 9.98819 108.61 9.96418C109.187 9.94017 110.052 9.47797 109.952 9.29189C109.821 9.13159 109.609 8.98711 109.332 8.86989C109.055 8.75268 108.72 8.66596 108.355 8.61661C107.932 8.57459 107.63 8.96292 107.08 9.149ZM108.362 7.20302C107.59 6.98993 107.174 6.79485 106.718 6.77384C106.436 6.77384 105.772 7.07397 105.833 7.13099C106.007 7.35062 106.366 7.53136 106.832 7.6352C107.114 7.67422 107.597 7.43111 108.362 7.20302ZM114.883 9.0638C114.071 8.83571 113.635 8.62262 113.206 8.62562C112.776 8.62862 112.535 8.89273 112.186 9.04279C112.548 9.18985 112.857 9.42395 113.279 9.45396C113.702 9.48397 114.051 9.27389 114.883 9.0638Z" fill="#CF2327"/>
<path d="M110.576 11.795L119.109 9.69409C119.109 10.3244 119.109 10.8946 119.109 11.4378C119.109 12.7734 119.203 14.1089 119.203 15.4445C119.159 15.7231 119.057 15.9994 118.901 16.2698C117.684 16.2196 116.478 16.1272 115.292 15.9937C111.448 15.4325 108.134 14.5381 106.235 12.8454L108.315 12.3622L108.986 12.2001C109.035 12.2013 109.083 12.1977 109.129 12.1894C109.174 12.181 109.215 12.1683 109.247 12.1521L110.576 11.795ZM114.252 15.0603C115.037 14.5861 115.889 14.295 115.836 14.0429C115.722 13.8796 115.521 13.731 115.251 13.6098C114.982 13.4886 114.65 13.3983 114.286 13.3466C113.266 13.2386 112.676 13.6467 112.823 14.0519C112.924 14.337 113.555 14.5861 114.252 15.0603ZM118.049 11.897C117.325 11.6959 116.835 11.4618 116.54 11.5038C116.3 11.5468 116.086 11.6142 115.915 11.7007C115.744 11.7872 115.62 11.8904 115.554 12.0021C115.513 12.1191 116.225 12.4222 116.547 12.4072C116.983 12.3862 117.405 12.1431 118.076 11.897H118.049ZM111.099 13.2296C110.489 13.0075 110.073 12.7524 109.757 12.7794C109.314 12.8154 108.959 13.0525 108.57 13.2026C108.919 13.3496 109.241 13.5927 109.623 13.6137C110.006 13.6347 110.421 13.4187 111.099 13.2296Z" fill="#CF2327"/>
<path d="M120.532 16.1918V9.68506L130.152 12.0651L133.198 12.9114C132.447 13.3916 131.856 13.9528 130.924 14.331C127.992 15.5045 124.678 16.3358 120.532 16.1918ZM125.61 12.5753C125.61 12.4732 125.61 12.3682 125.61 12.2751C124.939 12.0981 124.336 11.8099 123.645 11.7709C123.429 11.7558 123.208 11.7659 123.003 11.8003C122.799 11.8346 122.618 11.892 122.477 11.9668C122.337 12.0417 122.242 12.1316 122.202 12.2276C122.162 12.3237 122.178 12.4228 122.249 12.5152C122.371 12.6684 122.576 12.8058 122.845 12.9152C123.114 13.0246 123.44 13.1027 123.792 13.1425C124.376 13.1305 124.993 12.7763 125.61 12.5753ZM130.917 13.2235C130.307 13.0315 129.904 12.8064 129.575 12.8244C129.247 12.8424 128.616 13.1395 128.683 13.2415C128.77 13.3474 128.908 13.4436 129.086 13.5234C129.265 13.6032 129.479 13.6647 129.716 13.7037C129.931 13.7338 130.36 13.4606 130.917 13.2235ZM122.913 14.1479C122.491 14.4481 121.994 14.6371 122.055 14.7812C122.131 14.8794 122.264 14.967 122.439 15.0354C122.614 15.1038 122.826 15.1507 123.054 15.1714C123.273 15.1406 123.47 15.0853 123.628 15.0107C123.785 14.9361 123.897 14.8447 123.953 14.7452C123.973 14.5921 123.443 14.427 122.913 14.1479Z" fill="#CF2327"/>
<path d="M100.848 12.047C100.781 11.948 100.707 11.849 100.633 11.7469C100.573 11.5999 100.506 11.4468 100.445 11.3117L100.264 11.1677C100.277 11.1222 100.258 11.0762 100.211 11.0356C100.123 10.8916 100.036 10.7355 99.9557 10.6004C99.359 8.87677 99.8228 7.11295 101.297 5.4983C101.613 5.15916 101.881 4.72998 103.075 5.02411L104.565 5.51631C104.518 5.62536 104.453 5.7327 104.37 5.83744C103.315 6.83972 102.773 7.9344 102.781 9.04215C102.789 10.1499 103.348 11.243 104.417 12.2421C104.491 12.4166 104.491 12.5958 104.417 12.7704L102.404 13.2686L101.841 13.1665C101.74 13.0735 101.64 12.9804 101.546 12.8844L101.224 12.6203L101.063 12.4672L100.881 12.2961L100.848 12.047Z" fill="#CF2327"/>
<path d="M137.794 4.93103C140.08 6.8998 140.612 9.18327 139.283 11.3207C139.032 11.7618 138.709 12.1942 138.317 12.6143C138.035 12.9144 137.847 13.3856 136.653 13.0824C135.747 12.8514 134.768 12.7403 135.472 12.029C137.284 10.1922 137.653 8.29844 135.908 6.37764C135.003 5.37522 135.217 5.25517 137.794 4.93103Z" fill="#CF2327"/>
<path d="M104.108 4.71198C103.726 4.58893 103.337 4.46588 102.767 4.2828L104.417 3.12731L106.007 2.39801L108.945 1.40159C112.072 0.624266 115.326 0.0330138 119.183 0V1.37158C113.575 1.4316 109.281 2.57208 106.034 4.57092C105.537 4.9911 104.826 4.85904 104.108 4.71198Z" fill="#CF2327"/>
<path d="M118.271 16.585C119.774 16.726 118.995 17.2933 119.27 17.6624L119.17 17.9235H119.217L116.976 17.9745L116.151 17.9295L115.044 17.8005L113.803 17.6534L113.501 17.5934L112.83 17.4883L112.159 17.3803L109.006 16.642L108.63 16.5219L106.872 15.9217V15.8676H106.758L104.692 14.9313L103.813 14.4871L103.551 14.352L102.928 13.9078L105.698 13.2145C108.764 15.1564 112.743 16.4619 118.271 16.585Z" fill="#CF2327"/>
<path d="M131.816 16.2998C129.99 16.8534 126.912 17.3473 124.376 17.7614C123.229 17.9475 121.853 17.8605 120.585 17.8965C120.593 17.8795 120.591 17.8619 120.581 17.8453C120.57 17.8286 120.551 17.8132 120.525 17.8005C120.767 17.3893 119.8 16.783 121.484 16.6C122.225 16.5712 122.962 16.5241 123.692 16.4589C127.891 15.9757 131.481 15.0903 133.708 13.3376L136.854 13.6647C136.432 14.0429 136.183 14.265 135.942 14.4841L135.157 14.9012L134.942 15.0093L133.272 15.7686C133.228 15.7704 133.186 15.7775 133.151 15.7891C133.115 15.8007 133.087 15.8165 133.071 15.8346L132.084 16.2218L131.816 16.2998Z" fill="#CF2327"/>
<path d="M118.264 21.2639L117.647 21.8432C117.855 21.6481 118.076 21.453 118.264 21.2639Z" fill="#FFFEFE"/>
<path d="M114.527 25.5977V25.6607L114.393 25.6848C114.419 25.6508 114.466 25.6208 114.527 25.5977Z" fill="#FFFEFE"/>
<path d="M99.4055 22.9716L99.6 22.8786C99.5536 22.9164 99.4867 22.9484 99.4055 22.9716Z" fill="#FFFEFE"/>
<path d="M106.732 15.8616H106.846V15.9157C106.802 15.9004 106.763 15.8822 106.732 15.8616Z" fill="#FFFEFE"/>
<path d="M36.5434 16.3869H31.7197L31.089 16.3539C30.9015 16.0596 30.7758 15.7582 30.7134 15.4535C30.7134 11.1977 30.7134 6.94294 30.7134 2.68915L30.7737 2.66815L50.0483 2.68616C50.1471 2.7021 50.252 2.70924 50.357 2.70717C50.357 3.7366 50.2832 4.76903 50.4241 5.79546C50.518 6.50976 49.7532 6.64481 48.4114 6.62981C46.2713 6.59979 44.1311 6.6028 41.9977 6.59379C41.5146 6.59379 41.0383 6.59379 40.562 6.56678C39.6764 6.52777 39.3208 6.69584 39.3276 7.09501C39.3343 7.49418 39.6429 7.60522 40.4614 7.59922C43.0041 7.57821 45.5466 7.57221 48.096 7.5632L50.3033 7.58721C50.3569 7.68025 50.4039 7.77328 50.4508 7.86632C50.3972 9.06683 50.339 10.2593 50.2764 11.4438L49.3976 11.4828H48.5705C48.15 11.4828 47.6571 11.4903 47.2508 11.4618C45.0033 11.4468 42.7491 11.4618 40.5016 11.4618C39.5355 11.4618 39.1599 11.6929 39.3544 12.0291C39.4491 12.1408 39.604 12.2403 39.8052 12.3188C40.0065 12.3974 40.248 12.4525 40.5083 12.4793C42.7558 12.5213 45.0166 12.5213 47.2574 12.4793C47.7807 12.4793 47.9056 12.4793 48.5705 12.4793H49.0007H49.343H50.1938C50.4688 12.7494 50.3838 12.7374 50.3972 13.0105C50.4576 14.121 50.3972 15.2344 50.3301 16.3479L49.3909 16.3719H49.0689H48.1094H41.3469L36.5434 16.3869Z" fill="#EDA61E"/>
<path d="M73.5495 16.3869H59.7091L55.1806 16.3539L54.9257 16.1768L54.9793 16.1468L54.9257 16.1138C54.9257 15.9967 54.9257 15.8797 54.9257 15.7626C54.9257 11.5609 54.9257 7.35909 54.9257 3.15733C54.9257 3.0853 54.9257 3.01327 54.9257 2.94124V2.89322L55.1672 2.70113L55.5965 2.62311L63.5398 2.65012C63.6715 2.96972 63.7633 3.29236 63.8149 3.61652C63.8686 5.32424 63.882 7.03195 63.9156 8.73667C63.8686 9.80812 63.8418 10.8826 63.7613 11.954C63.7613 12.3982 64.1705 12.5123 65.1031 12.5062C68.2965 12.4822 71.4832 12.5062 74.8108 12.5062V16.3599L73.8514 16.3959C73.8068 16.3832 73.7558 16.3757 73.7031 16.3741C73.6503 16.3725 73.5975 16.3769 73.5495 16.3869Z" fill="#EDA61E"/>
<path d="M54.9122 15.7626C54.9122 15.8797 54.9122 15.9967 54.9122 16.1138C54.9189 15.9967 54.9189 15.8797 54.9122 15.7626Z" fill="white"/>
<path d="M0.503226 16.3689L0.416007 16.3359H0.301927C0.266146 14.4211 0.232667 12.5063 0.201359 10.5915C0.161106 8.00638 0.125302 5.42229 0.0939941 2.83921C0.308678 2.77618 0.523362 2.65614 0.764881 2.65313C3.60273 2.63213 6.44055 2.60511 9.2784 2.65313C9.66081 2.65313 10.3317 3.01029 10.3317 3.20237C10.3317 3.9827 10.0231 4.76302 10.0231 5.54635C10.0231 6.20063 10.2848 6.8549 10.4391 7.54219H16.9803C16.9803 6.17361 17.0608 4.84105 16.9803 3.50549C16.9266 2.8152 17.4029 2.5661 18.9526 2.60511C21.0928 2.65013 23.2396 2.64113 25.3797 2.60511C26.5538 2.5841 27.0637 2.77919 27.0167 3.2894V3.70958C27.0167 3.94968 27.0167 4.19279 27.0167 4.43289V8.61063C27.0167 8.70367 27.0167 8.79971 27.0167 8.89275C27.0167 9.19288 27.0167 9.472 27.0167 9.76012V10.0452V12.4883V13.3646L26.8356 16.3659H17.0473V11.4708C15.0347 11.4708 13.1427 11.4168 11.2978 11.4918C10.003 11.5429 9.956 12.0621 10.0365 12.5333C10.1707 13.6017 10.2781 14.6732 10.4122 15.7416C10.4726 16.2218 9.9024 16.3629 8.92961 16.3599C6.36011 16.3599 3.7839 16.3599 1.21441 16.3779L0.503226 16.3689Z" fill="#EDA61E"/>
<path d="M97.0305 16.3719H80.6206H80.3053H79.6881L79.3728 16.2038C79.3728 16.1198 79.3728 16.0357 79.3728 15.9517V15.8107C79.3728 15.7596 79.3728 15.7116 79.3728 15.6636C79.3728 12.8344 79.3728 10.0052 79.3728 7.17604C79.3728 7.00197 79.3728 6.8279 79.3728 6.65382V4.23481V3.15435C79.3728 3.15435 79.4667 3.11834 79.4599 3.10633C79.4334 3.06813 79.3998 3.03098 79.3594 2.99529C79.3749 2.98937 79.3874 2.98201 79.396 2.97372C79.4046 2.96543 79.409 2.9564 79.409 2.94727C79.409 2.93813 79.4046 2.92911 79.396 2.92082C79.3874 2.91252 79.3749 2.90516 79.3594 2.89925L79.6478 2.71016L80.6072 2.66815L87.987 2.69817L88.0473 2.72217C88.1278 2.91125 88.2016 3.10033 88.2821 3.29241C88.2821 3.62555 88.2821 3.95869 88.2821 4.29183C88.2217 6.91193 88.148 9.52903 88.148 12.1491C88.148 12.2662 88.8926 12.3862 89.2952 12.5033L98.9291 12.5183C99.023 13.1185 99.1639 13.7188 99.2042 14.319C99.2444 14.9193 99.2042 15.5886 99.2042 16.2608L97.6478 16.3809L97.0305 16.3719Z" fill="#EDA61E"/>
<path d="M99.9623 10.6035C100.043 10.7475 100.13 10.9036 100.217 11.0386C100.123 10.8946 100.036 10.7595 99.9623 10.6035Z" fill="#FFFEFE"/>
<path d="M120.76 24.0731C120.579 24.2862 120.404 24.4993 120.223 24.7094C120.431 24.4993 120.606 24.2862 120.76 24.0731Z" fill="white"/>
<path d="M106.342 4.84104C108.966 3.34041 112.213 2.26896 116.406 1.8848C117.343 1.84757 118.286 1.85966 119.217 1.92081C119.217 3.52149 119.194 5.12216 119.15 6.72283V8.5476L111.159 6.56677C109.75 6.18261 108.308 5.81945 106.94 5.40228C106.671 5.30624 106.55 5.03612 106.342 4.84104ZM113.259 4.56793C112.213 4.23779 111.663 3.92866 111.045 3.90165C110.831 3.88242 110.608 3.88842 110.4 3.91906C110.192 3.9497 110.005 4.00393 109.858 4.07647C109.711 4.14901 109.608 4.23739 109.56 4.33299C109.511 4.42858 109.519 4.52814 109.583 4.62195C109.706 4.77272 109.909 4.90795 110.174 5.01612C110.439 5.12429 110.759 5.2022 111.106 5.24321C111.636 5.26122 112.233 4.91007 113.259 4.56793ZM118.043 3.3044C117.372 3.02828 117.01 2.73416 116.641 2.74016C116.272 2.74616 115.835 3.04029 115.433 3.18435C115.768 3.34042 116.064 3.58652 116.459 3.62554C116.855 3.66455 117.278 3.46947 118.076 3.3044H118.043ZM115.916 6.85789C116.439 6.55776 116.976 6.3897 116.956 6.23363C116.936 6.07757 116.386 5.90949 116.07 5.75042C115.721 5.89448 115.158 6.02053 115.084 6.1886C115.01 6.35668 115.493 6.55776 115.916 6.85789Z" fill="#CF2327"/>
<path d="M100.251 12.3352C100.211 12.2811 100.177 12.2301 100.251 12.3352Z" fill="white"/>
<path d="M79.3594 15.7896V15.9307L78.9971 15.8556L79.3594 15.7896Z" fill="white"/>
<path d="M73.5494 16.3869C73.5966 16.375 73.6497 16.3688 73.7037 16.3688C73.7578 16.3688 73.8109 16.375 73.858 16.3869H73.5494Z" fill="white"/>
<path d="M79.3728 16.1828L79.6881 16.3509C79.5808 16.2938 79.4734 16.2398 79.3728 16.1828Z" fill="white"/>
<path d="M3.40136 39.9498L1.48263 39.8117L1.02648 39.6586L0.838609 39.5686C0.623925 39.1244 0.409241 38.6682 0.167722 38.236C0.167722 38.044 0.167722 37.8519 0.167722 37.6598L0 35.5769L0.0603569 35.5529C0.0939013 34.5295 0.134177 33.5031 0.167722 32.4796C0.194557 29.8125 0.219147 27.1434 0.24151 24.4723C0.24151 23.6859 0.24151 22.8996 0.24151 22.1133C0.328725 21.8282 0.422666 21.54 0.509881 21.2519C1.47596 21.0508 2.42858 20.6877 3.40136 20.6727C7.31264 20.6097 11.224 20.6187 15.1353 20.6727C22.3138 20.7567 27.6473 23.2958 27.6674 26.5852C27.6875 29.8745 22.3003 32.4766 15.2963 32.5877C12.7268 32.6327 10.1506 32.6147 7.58106 32.6147C5.42751 32.6147 5.41409 32.6147 5.40068 33.5451C5.40068 35.2228 5.40068 36.9005 5.40068 38.5782C5.36713 39.2325 4.92428 39.7427 3.40136 39.9498ZM5.41403 22.5635C5.41403 25.2346 5.41403 27.6956 5.41403 30.1567C5.41403 30.5618 5.89711 30.6249 6.63509 30.6219C9.15091 30.6038 11.6667 30.6219 14.1826 30.5798C18.5098 30.4868 21.5623 29.2533 22.3606 27.3475C23.2261 25.2466 20.556 23.1127 16.3227 22.8456C12.8072 22.6235 9.20458 22.6535 5.3671 22.5635H5.41403Z" fill="#EDA61E"/>
<path d="M36.9593 39.2294C36.8184 39.3405 36.6775 39.4545 36.5434 39.5686L36.3489 39.6706C36.3311 39.6691 36.3127 39.6695 36.2954 39.6718C36.278 39.6741 36.2622 39.6782 36.2491 39.6838C36.236 39.6893 36.226 39.6962 36.22 39.7039C36.2141 39.7115 36.2122 39.7196 36.2146 39.7276L35.9463 39.8147L35.8859 39.8327L35.1681 39.9467L33.0481 39.8237L32.7059 39.7186C32.7026 39.708 32.6946 39.6977 32.6823 39.6884C32.67 39.6791 32.6538 39.671 32.6344 39.6646C32.615 39.6581 32.593 39.6535 32.5696 39.6509C32.5461 39.6484 32.5217 39.6479 32.4979 39.6496C32.2269 39.1423 32.0408 38.6267 31.9411 38.107C31.8807 36.3572 31.9411 34.6045 31.9411 32.8548L31.9009 21.567L32.0819 21.1409C32.1423 21.0868 32.2027 21.0328 32.2564 20.9788L33.0414 20.6036L33.3299 20.5436L33.6787 20.4986L35.2285 20.4836L36.6239 20.8677C36.597 20.9158 36.6373 20.9428 36.7447 20.9488C36.8856 21.1709 37.0197 21.39 37.1539 21.6121C37.1539 22.0232 37.2008 22.4314 37.221 22.8396V24.4182C37.221 25.9189 37.1405 27.4195 37.1338 28.9201C37.1338 31.9214 37.145 34.9276 37.1673 37.9389L36.9593 39.2294Z" fill="#EDA61E"/>
<path d="M32.2496 20.9788C32.1959 21.0328 32.1356 21.0869 32.0752 21.1409C32.1356 21.0869 32.2026 21.0328 32.2496 20.9788Z" fill="white"/>
<path d="M66.8406 28.605L67.1157 28.4459L67.4444 28.3049C67.5115 28.3049 67.545 28.2839 67.5517 28.2509C69.0076 27.8697 70.5103 27.5816 72.2479 27.8007L72.9188 27.8787L73.5562 28.0168C76.9509 29.1542 76.649 31.0961 72.8853 31.9544L72.5499 32.0355L71.5972 32.1075L68.7392 31.9154C68.7055 31.9021 68.6662 31.8921 68.6235 31.8859C68.5808 31.8797 68.5357 31.8775 68.491 31.8794L66.5454 31.03C66.3911 30.835 66.2301 30.6429 66.0758 30.4478C66.0087 30.3427 65.9483 30.2347 65.8812 30.1267V29.6405C65.9416 29.5384 66.0087 29.4364 66.0691 29.3403L66.1899 29.1933L66.3509 29.0522L66.485 28.8841C66.5924 28.7851 66.7199 28.6951 66.8406 28.605Z" fill="#CF2327"/>
<path d="M72.2413 22.8546C74.1802 23.6079 74.1735 24.1572 72.2413 24.9555C70.8123 25.0545 69.4101 24.9555 69.0143 24.2742C68.9431 24.0655 68.9746 23.8523 69.1067 23.6496C69.2388 23.4469 69.4683 23.2596 69.7791 23.1007C70.2488 22.8666 71.3893 22.9236 72.2413 22.8546Z" fill="#CF2327"/>
<path d="M37.1471 21.6121C37.013 21.39 36.8788 21.1709 36.7379 20.9488C36.8989 21.1709 37.013 21.39 37.1471 21.6121Z" fill="white"/>
<path d="M56.8376 25.4657C58.1794 24.9585 59.5682 24.6674 61.3058 25.0425L62.0639 25.3036L62.2718 25.4267L62.9427 26.0269L63.0433 26.5882C62.9025 26.7832 62.7549 26.9783 62.614 27.1734L62.3926 27.3205L62.3121 27.3595C62.2383 27.3925 62.1712 27.4285 62.1041 27.4615L60.0512 27.9027C59.9523 27.8847 59.8416 27.8847 59.7426 27.9027L58.8369 27.8757L58.166 27.7737L57.4951 27.5996L56.623 27.2334C56.4687 27.0203 56.3076 26.8073 56.1533 26.5942C56.1533 26.4501 56.1533 26.294 56.1533 26.165L56.8376 25.4657Z" fill="#CF2327"/>
<path d="M82.8882 27.5665C82.8833 27.8557 82.6284 28.1329 82.1769 28.3399C81.7254 28.5469 81.1124 28.6677 80.4662 28.677C80.1204 28.6859 79.7741 28.6636 79.448 28.6114C79.1218 28.5592 78.8224 28.4782 78.5677 28.3732C78.3129 28.2682 78.108 28.1413 77.9651 28.0002C77.8222 27.859 77.7441 27.7064 77.7357 27.5515C77.8257 27.2587 78.1446 26.9895 78.6357 26.7917C79.1269 26.594 79.7588 26.4804 80.4193 26.4711C81.0685 26.4741 81.6894 26.5903 82.1504 26.7948C82.6113 26.9993 82.876 27.2761 82.8882 27.5665Z" fill="#CF2327"/>
<path d="M80.2516 24.2202C80.3297 23.993 80.5991 23.7879 81.0045 23.6467C81.4098 23.5055 81.9206 23.439 82.432 23.4609C82.9692 23.4858 83.4652 23.6009 83.8201 23.7831C84.175 23.9652 84.3622 24.2008 84.344 24.4423C84.2452 24.6924 83.9334 24.9157 83.4743 25.0651C83.0151 25.2146 82.4443 25.2786 81.8819 25.2436C80.6944 25.1356 80.2583 24.7484 80.2516 24.2202Z" fill="#CF2327"/>
<path d="M70.8593 38.5242C70.8593 38.6622 70.8593 38.8033 70.8593 38.9443C70.866 38.8033 70.866 38.6712 70.8593 38.5242Z" fill="#FFFEFE"/>
<path d="M69.7725 39.0854C69.7725 38.9503 69.8194 38.8183 69.8395 38.6832C69.7724 38.8183 69.7725 38.9503 69.7725 39.0854Z" fill="#FFFEFE"/>
<path d="M101.344 39.2234C101.398 39.1574 101.445 39.0944 101.492 39.0314L101.344 39.2234Z" fill="#FDFDFD"/>
<path d="M106.537 35.2288L106.383 35.3698C106.43 35.3218 106.483 35.2768 106.537 35.2288Z" fill="#FDFDFD"/>
<path d="M64.09 34.3795C64.1359 34.4004 64.1764 34.4235 64.2107 34.4485L64.0967 34.4305L64.09 34.3795Z" fill="#CF2327"/>
<path d="M68.0818 35.6459V35.3608L68.3837 35.0607L69.7255 34.7065L70.6513 34.6915L71.6777 34.9256L71.9125 35.0277L71.9931 36.1531C70.0408 36.7324 68.9338 36.5853 68.0818 35.6459Z" fill="#CF2327"/>
<path d="M65.8611 30.1266C65.9282 30.2346 65.9885 30.3427 66.0556 30.4477L65.8611 30.1266Z" fill="#FFFEFE"/>
<path d="M136.23 34.8236L138.914 38.053C139.759 39.0794 139.498 39.6466 138.055 39.9017C136.358 40.2019 134.862 39.8057 134.03 38.8333C133.359 38.0049 132.608 37.1796 132.017 36.3422C131.93 36.1324 131.667 35.9455 131.281 35.8199C130.896 35.6943 130.417 35.6396 129.944 35.667C124.376 35.697 118.81 35.697 113.246 35.667C112.72 35.6366 112.188 35.697 111.758 35.8358C111.328 35.9747 111.033 36.1815 110.931 36.4143C110.26 37.3146 109.475 38.215 108.737 39.1154C108.557 39.3559 108.212 39.5647 107.75 39.7119C107.289 39.8591 106.735 39.9371 106.168 39.9347C104.028 39.9708 102.988 39.3495 103.726 38.4341C104.571 37.4017 105.517 36.3873 106.409 35.3668L106.564 35.2258C106.617 35.1327 106.678 35.0397 106.738 34.9436C106.799 34.8926 106.852 34.8416 106.906 34.7906C107.979 33.458 109.06 32.1285 110.113 30.7929C110.334 30.5108 110.442 30.2137 110.609 29.9225L112.367 28.1578L112.823 27.6026L113.729 26.5761C113.77 26.5617 113.801 26.5417 113.815 26.519C113.83 26.4963 113.828 26.4722 113.809 26.4501L113.95 26.306L114.152 26.0599L114.292 25.8768C114.339 25.8108 114.393 25.7478 114.44 25.6818L114.574 25.6578V25.5947C114.675 25.4477 114.782 25.2946 114.883 25.1535C115.554 24.3462 116.225 23.5419 116.895 22.7375L117.378 22.1373C117.472 22.0412 117.573 21.9452 117.667 21.8522L118.284 21.2729L118.479 21.1469C118.529 21.1439 118.575 21.1321 118.607 21.1142C118.638 21.0962 118.652 21.0735 118.646 21.0508L121.491 20.4116C123.504 20.5556 124.617 21.1529 125.295 21.9692C126.771 23.74 128.263 25.5087 129.77 27.2754C131.912 29.7865 134.066 32.3025 136.23 34.8236ZM122.403 24.2832L121.907 23.743L121.773 23.5599L121.377 23.3858L121.169 23.5569L120.787 24.0731C120.606 24.2862 120.431 24.4993 120.25 24.7094C119.15 26.0539 118.036 27.3925 116.949 28.737C115.822 30.1296 114.695 31.5192 113.648 32.9388C113.494 33.1489 112.521 33.5931 114.084 33.6471H114.406L117.64 33.6171H124.684L128.24 33.6471C129.81 33.6831 129.904 33.6171 129.233 32.9148L129.012 32.6147L128.891 32.4826C127.589 30.8539 126.286 29.2253 124.98 27.5966C124.148 26.5401 123.311 25.4827 122.471 24.4242C122.492 24.4004 122.497 24.3743 122.485 24.3491C122.473 24.324 122.445 24.301 122.403 24.2832Z" fill="#EDA61E"/>
<path d="M69.645 38.2391C69.7054 38.3861 69.759 38.5392 69.8193 38.6832C69.8797 38.8273 69.7724 38.9504 69.7523 39.0854C68.9472 39.7667 67.4981 39.7997 66.049 39.7997C60.9905 39.7997 55.9253 39.7997 50.8668 39.7997C50.2831 39.7997 49.6994 39.8207 49.1158 39.8297H48.096C45.9089 39.8087 43.7085 39.8297 41.5281 39.7517C39.8643 39.7007 38.9988 39.2775 39.133 38.6712C39.2873 37.9779 40.3138 37.7709 41.7159 37.7709C44.1714 37.7709 46.6335 37.7228 49.0957 37.6988H49.1963L49.2433 37.6598L55.1739 37.7469H63.305L57.6092 34.0283L49.7532 28.7191C46.9623 26.8103 44.1915 24.8955 41.3536 23.0017C40.3406 22.3264 39.5557 21.6541 40.1058 20.8138L40.7767 20.7387L41.0584 20.6697L42.0447 20.5977L49.364 20.5436C51.7456 20.5737 54.1273 20.6217 56.5157 20.6337C59.8231 20.6517 63.1306 20.6337 66.4381 20.6517C67.0033 20.6385 67.5572 20.7258 67.9793 20.8944C68.4015 21.063 68.6577 21.2994 68.6923 21.5521C68.8533 22.1223 68.0214 22.4284 66.8808 22.5635C66.3094 22.6166 65.7314 22.6547 65.15 22.6775H50.3837H49.1023H46.506L48.9682 24.0611C49.1292 24.2232 49.2902 24.3883 49.4579 24.5503L49.7263 24.6914L50.0215 24.8384L50.4106 25.1386L50.6656 25.2826L51.0748 25.5647L51.3096 25.7208L51.7322 26.0209L51.9536 26.162C52.2287 26.3601 52.5104 26.5552 52.7922 26.7622C52.7862 26.7726 52.7855 26.7834 52.79 26.7939C52.7945 26.8044 52.8041 26.8143 52.8183 26.8229C52.8324 26.8316 52.8506 26.8387 52.8717 26.8437C52.8927 26.8488 52.916 26.8517 52.9399 26.8523L53.443 27.1974C53.443 27.2484 53.443 27.2785 53.5705 27.2905L55.147 28.3259L56.4486 29.1933L58.6625 30.6459V30.6279L59.0181 30.928L59.8165 31.4832L60.8295 32.2005L61.8693 32.8158C62.4374 33.2159 63.0099 33.6221 63.5868 34.0343L64.09 34.3884V34.4395L64.204 34.4575L65.3647 35.2528V35.3038L65.4787 35.3248C65.4874 35.3443 65.5075 35.3623 65.537 35.3771C65.5665 35.3918 65.6043 35.4028 65.6464 35.4089L69.645 38.2391Z" fill="#CF2327"/>
<path d="M100.694 21.9542L100.472 22.2543L99.9019 22.6985L99.6 22.8906L99.4055 22.9836L99.2645 23.1247L99.0029 23.2747L98.6138 23.5749L95.6418 25.5767C94.9173 26.0629 94.1949 26.5491 93.4748 27.0353L93.2534 27.1704L89.6239 29.6374C85.6791 32.2365 81.7455 34.8476 77.823 37.4707C77.7224 37.5367 77.7626 37.6448 77.7291 37.7708H93.2198H99.2578L100.814 37.9749L101.264 38.143C101.351 38.272 101.445 38.4041 101.539 38.5331V38.9653L101.465 39.0013L101.519 39.0434L101.371 39.2354C101.317 39.2835 101.264 39.3345 101.217 39.3855L100.922 39.5296L100.251 39.7156L99.4591 39.8147C91.158 39.8147 82.8636 39.8147 74.5759 39.8147C73.0463 39.8147 71.5233 39.7787 70.9061 38.9713C70.9061 38.8303 70.9061 38.6892 70.9061 38.5511C70.9061 38.4131 71.0001 38.3591 71.0538 38.266L73.5159 36.5343C73.6397 36.4889 73.7542 36.4387 73.858 36.3842C80.388 31.9724 86.9113 27.5585 93.4279 23.1427C93.5892 22.9974 93.7194 22.8457 93.8169 22.6895C89.9593 22.6895 86.2762 22.6895 82.593 22.6895C79.4935 22.6715 76.3873 22.6145 73.2878 22.5724C72.4157 22.2723 71.6508 21.9392 72.1003 21.3719C72.5498 20.8047 73.5897 20.6727 74.7839 20.6817C75.1059 20.6817 75.4213 20.6817 75.7433 20.6817L98.3454 20.6606L99.6201 20.7297L99.9087 20.7927L100.244 20.8947L100.915 21.6481L100.694 21.9542Z" fill="#EDA61E"/>
<path d="M130.776 11.6179L121.344 9.10582L133.057 5.97852L134.399 5.71741C136.673 7.98036 136.875 10.1893 134.265 12.4582L130.776 11.6179ZM131.179 8.5896C131.179 8.69765 131.179 8.8027 131.179 8.91074C131.742 9.09682 132.4 9.46897 132.843 9.42395C133.513 9.35492 133.99 8.99178 134.553 8.75167C134.003 8.50857 133.52 8.11841 132.889 8.06438C132.427 8.02237 131.762 8.40052 131.179 8.5896ZM128.388 9.0488C127.717 8.86272 127.301 8.63463 126.992 8.66764C126.684 8.70065 126.06 8.96776 126.1 9.12383C126.174 9.22766 126.307 9.32118 126.486 9.39531C126.664 9.46945 126.883 9.5217 127.12 9.54701C127.422 9.55901 127.804 9.2919 128.388 9.0488ZM133.809 11.0356C133.138 10.7835 132.816 10.5374 132.467 10.5314C132.118 10.5254 131.668 10.7805 131.548 10.9606C131.487 11.0566 132.017 11.3388 132.312 11.3478C132.608 11.3568 133.104 11.1917 133.809 11.0356Z" fill="#CF2327"/>
<path d="M111.119 7.11298L116.734 8.65863L118.378 9.09982C115.5 9.87114 112.837 10.5854 110.166 11.2967L109.227 11.5578L106.671 12.2601L105.765 12.4882H105.43C103.008 10.2583 102.747 8.02836 105.282 5.7384L111.119 7.11298ZM107.08 9.149V9.47002C107.703 9.65009 108.033 9.98819 108.61 9.96418C109.187 9.94017 110.052 9.47797 109.952 9.29189C109.821 9.13159 109.609 8.98711 109.332 8.86989C109.055 8.75268 108.72 8.66596 108.355 8.61661C107.932 8.57459 107.63 8.96292 107.08 9.149ZM108.362 7.20302C107.59 6.98993 107.174 6.79485 106.718 6.77384C106.436 6.77384 105.772 7.07397 105.833 7.13099C106.007 7.35062 106.366 7.53136 106.832 7.6352C107.114 7.67422 107.597 7.43111 108.362 7.20302ZM114.883 9.0638C114.071 8.83571 113.635 8.62262 113.206 8.62562C112.776 8.62862 112.535 8.89273 112.186 9.04279C112.548 9.18985 112.857 9.42395 113.279 9.45396C113.702 9.48397 114.051 9.27389 114.883 9.0638Z" fill="#CF2327"/>
<path d="M110.576 11.795L119.109 9.69409C119.109 10.3244 119.109 10.8946 119.109 11.4378C119.109 12.7734 119.203 14.1089 119.203 15.4445C119.159 15.7231 119.057 15.9994 118.901 16.2698C117.684 16.2196 116.478 16.1272 115.292 15.9937C111.448 15.4325 108.134 14.5381 106.235 12.8454L108.315 12.3622L108.986 12.2001C109.035 12.2013 109.083 12.1977 109.129 12.1894C109.174 12.181 109.215 12.1683 109.247 12.1521L110.576 11.795ZM114.252 15.0603C115.037 14.5861 115.889 14.295 115.836 14.0429C115.722 13.8796 115.521 13.731 115.251 13.6098C114.982 13.4886 114.65 13.3983 114.286 13.3466C113.266 13.2386 112.676 13.6467 112.823 14.0519C112.924 14.337 113.555 14.5861 114.252 15.0603ZM118.049 11.897C117.325 11.6959 116.835 11.4618 116.54 11.5038C116.3 11.5468 116.086 11.6142 115.915 11.7007C115.744 11.7872 115.62 11.8904 115.554 12.0021C115.513 12.1191 116.225 12.4222 116.547 12.4072C116.983 12.3862 117.405 12.1431 118.076 11.897H118.049ZM111.099 13.2296C110.489 13.0075 110.073 12.7524 109.757 12.7794C109.314 12.8154 108.959 13.0525 108.57 13.2026C108.919 13.3496 109.241 13.5927 109.623 13.6137C110.006 13.6347 110.421 13.4187 111.099 13.2296Z" fill="#CF2327"/>
<path d="M120.532 16.1918V9.68506L130.152 12.0651L133.198 12.9114C132.447 13.3916 131.856 13.9528 130.924 14.331C127.992 15.5045 124.678 16.3358 120.532 16.1918ZM125.61 12.5753C125.61 12.4732 125.61 12.3682 125.61 12.2751C124.939 12.0981 124.336 11.8099 123.645 11.7709C123.429 11.7558 123.208 11.7659 123.003 11.8003C122.799 11.8346 122.618 11.892 122.477 11.9668C122.337 12.0417 122.242 12.1316 122.202 12.2276C122.162 12.3237 122.178 12.4228 122.249 12.5152C122.371 12.6684 122.576 12.8058 122.845 12.9152C123.114 13.0246 123.44 13.1027 123.792 13.1425C124.376 13.1305 124.993 12.7763 125.61 12.5753ZM130.917 13.2235C130.307 13.0315 129.904 12.8064 129.575 12.8244C129.247 12.8424 128.616 13.1395 128.683 13.2415C128.77 13.3474 128.908 13.4436 129.086 13.5234C129.265 13.6032 129.479 13.6647 129.716 13.7037C129.931 13.7338 130.36 13.4606 130.917 13.2235ZM122.913 14.1479C122.491 14.4481 121.994 14.6371 122.055 14.7812C122.131 14.8794 122.264 14.967 122.439 15.0354C122.614 15.1038 122.826 15.1507 123.054 15.1714C123.273 15.1406 123.47 15.0853 123.628 15.0107C123.785 14.9361 123.897 14.8447 123.953 14.7452C123.973 14.5921 123.443 14.427 122.913 14.1479Z" fill="#CF2327"/>
<path d="M100.848 12.047C100.781 11.948 100.707 11.849 100.633 11.7469C100.573 11.5999 100.506 11.4468 100.445 11.3117L100.264 11.1677C100.277 11.1222 100.258 11.0762 100.211 11.0356C100.123 10.8916 100.036 10.7355 99.9557 10.6004C99.359 8.87677 99.8228 7.11295 101.297 5.4983C101.613 5.15916 101.881 4.72998 103.075 5.02411L104.565 5.51631C104.518 5.62536 104.453 5.7327 104.37 5.83744C103.315 6.83972 102.773 7.9344 102.781 9.04215C102.789 10.1499 103.348 11.243 104.417 12.2421C104.491 12.4166 104.491 12.5958 104.417 12.7704L102.404 13.2686L101.841 13.1665C101.74 13.0735 101.64 12.9804 101.546 12.8844L101.224 12.6203L101.063 12.4672L100.881 12.2961L100.848 12.047Z" fill="#CF2327"/>
<path d="M137.794 4.93103C140.08 6.8998 140.612 9.18327 139.283 11.3207C139.032 11.7618 138.709 12.1942 138.317 12.6143C138.035 12.9144 137.847 13.3856 136.653 13.0824C135.747 12.8514 134.768 12.7403 135.472 12.029C137.284 10.1922 137.653 8.29844 135.908 6.37764C135.003 5.37522 135.217 5.25517 137.794 4.93103Z" fill="#CF2327"/>
<path d="M104.108 4.71198C103.726 4.58893 103.337 4.46588 102.767 4.2828L104.417 3.12731L106.007 2.39801L108.945 1.40159C112.072 0.624266 115.326 0.0330138 119.183 0V1.37158C113.575 1.4316 109.281 2.57208 106.034 4.57092C105.537 4.9911 104.826 4.85904 104.108 4.71198Z" fill="#CF2327"/>
<path d="M118.271 16.585C119.774 16.726 118.995 17.2933 119.27 17.6624L119.17 17.9235H119.217L116.976 17.9745L116.151 17.9295L115.044 17.8005L113.803 17.6534L113.501 17.5934L112.83 17.4883L112.159 17.3803L109.006 16.642L108.63 16.5219L106.872 15.9217V15.8676H106.758L104.692 14.9313L103.813 14.4871L103.551 14.352L102.928 13.9078L105.698 13.2145C108.764 15.1564 112.743 16.4619 118.271 16.585Z" fill="#CF2327"/>
<path d="M131.816 16.2998C129.99 16.8534 126.912 17.3473 124.376 17.7614C123.229 17.9475 121.853 17.8605 120.585 17.8965C120.593 17.8795 120.591 17.8619 120.581 17.8453C120.57 17.8286 120.551 17.8132 120.525 17.8005C120.767 17.3893 119.8 16.783 121.484 16.6C122.225 16.5712 122.962 16.5241 123.692 16.4589C127.891 15.9757 131.481 15.0903 133.708 13.3376L136.854 13.6647C136.432 14.0429 136.183 14.265 135.942 14.4841L135.157 14.9012L134.942 15.0093L133.272 15.7686C133.228 15.7704 133.186 15.7775 133.151 15.7891C133.115 15.8007 133.087 15.8165 133.071 15.8346L132.084 16.2218L131.816 16.2998Z" fill="#CF2327"/>
<path d="M118.264 21.2639L117.647 21.8432C117.855 21.6481 118.076 21.453 118.264 21.2639Z" fill="#FFFEFE"/>
<path d="M114.527 25.5977V25.6607L114.393 25.6848C114.419 25.6508 114.466 25.6208 114.527 25.5977Z" fill="#FFFEFE"/>
<path d="M99.4055 22.9716L99.6 22.8786C99.5536 22.9164 99.4867 22.9484 99.4055 22.9716Z" fill="#FFFEFE"/>
<path d="M106.732 15.8616H106.846V15.9157C106.802 15.9004 106.763 15.8822 106.732 15.8616Z" fill="#FFFEFE"/>
<path d="M36.5434 16.3869H31.7197L31.089 16.3539C30.9015 16.0596 30.7758 15.7582 30.7134 15.4535C30.7134 11.1977 30.7134 6.94294 30.7134 2.68915L30.7737 2.66815L50.0483 2.68616C50.1471 2.7021 50.252 2.70924 50.357 2.70717C50.357 3.7366 50.2832 4.76903 50.4241 5.79546C50.518 6.50976 49.7532 6.64481 48.4114 6.62981C46.2713 6.59979 44.1311 6.6028 41.9977 6.59379C41.5146 6.59379 41.0383 6.59379 40.562 6.56678C39.6764 6.52777 39.3208 6.69584 39.3276 7.09501C39.3343 7.49418 39.6429 7.60522 40.4614 7.59922C43.0041 7.57821 45.5466 7.57221 48.096 7.5632L50.3033 7.58721C50.3569 7.68025 50.4039 7.77328 50.4508 7.86632C50.3972 9.06683 50.339 10.2593 50.2764 11.4438L49.3976 11.4828H48.5705C48.15 11.4828 47.6571 11.4903 47.2508 11.4618C45.0033 11.4468 42.7491 11.4618 40.5016 11.4618C39.5355 11.4618 39.1599 11.6929 39.3544 12.0291C39.4491 12.1408 39.604 12.2403 39.8052 12.3188C40.0065 12.3974 40.248 12.4525 40.5083 12.4793C42.7558 12.5213 45.0166 12.5213 47.2574 12.4793C47.7807 12.4793 47.9056 12.4793 48.5705 12.4793H49.0007H49.343H50.1938C50.4688 12.7494 50.3838 12.7374 50.3972 13.0105C50.4576 14.121 50.3972 15.2344 50.3301 16.3479L49.3909 16.3719H49.0689H48.1094H41.3469L36.5434 16.3869Z" fill="#EDA61E"/>
<path d="M73.5495 16.3869H59.7091L55.1806 16.3539L54.9257 16.1768L54.9793 16.1468L54.9257 16.1138C54.9257 15.9967 54.9257 15.8797 54.9257 15.7626C54.9257 11.5609 54.9257 7.35909 54.9257 3.15733C54.9257 3.0853 54.9257 3.01327 54.9257 2.94124V2.89322L55.1672 2.70113L55.5965 2.62311L63.5398 2.65012C63.6715 2.96972 63.7633 3.29236 63.8149 3.61652C63.8686 5.32424 63.882 7.03195 63.9156 8.73667C63.8686 9.80812 63.8418 10.8826 63.7613 11.954C63.7613 12.3982 64.1705 12.5123 65.1031 12.5062C68.2965 12.4822 71.4832 12.5062 74.8108 12.5062V16.3599L73.8514 16.3959C73.8068 16.3832 73.7558 16.3757 73.7031 16.3741C73.6503 16.3725 73.5975 16.3769 73.5495 16.3869Z" fill="#EDA61E"/>
<path d="M54.9122 15.7626C54.9122 15.8797 54.9122 15.9967 54.9122 16.1138C54.9189 15.9967 54.9189 15.8797 54.9122 15.7626Z" fill="white"/>
<path d="M0.503226 16.3689L0.416007 16.3359H0.301927C0.266146 14.4211 0.232667 12.5063 0.201359 10.5915C0.161106 8.00638 0.125302 5.42229 0.0939941 2.83921C0.308678 2.77618 0.523362 2.65614 0.764881 2.65313C3.60273 2.63213 6.44055 2.60511 9.2784 2.65313C9.66081 2.65313 10.3317 3.01029 10.3317 3.20237C10.3317 3.9827 10.0231 4.76302 10.0231 5.54635C10.0231 6.20063 10.2848 6.8549 10.4391 7.54219H16.9803C16.9803 6.17361 17.0608 4.84105 16.9803 3.50549C16.9266 2.8152 17.4029 2.5661 18.9526 2.60511C21.0928 2.65013 23.2396 2.64113 25.3797 2.60511C26.5538 2.5841 27.0637 2.77919 27.0167 3.2894V3.70958C27.0167 3.94968 27.0167 4.19279 27.0167 4.43289V8.61063C27.0167 8.70367 27.0167 8.79971 27.0167 8.89275C27.0167 9.19288 27.0167 9.472 27.0167 9.76012V10.0452V12.4883V13.3646L26.8356 16.3659H17.0473V11.4708C15.0347 11.4708 13.1427 11.4168 11.2978 11.4918C10.003 11.5429 9.956 12.0621 10.0365 12.5333C10.1707 13.6017 10.2781 14.6732 10.4122 15.7416C10.4726 16.2218 9.9024 16.3629 8.92961 16.3599C6.36011 16.3599 3.7839 16.3599 1.21441 16.3779L0.503226 16.3689Z" fill="#EDA61E"/>
<path d="M97.0305 16.3719H80.6206H80.3053H79.6881L79.3728 16.2038C79.3728 16.1198 79.3728 16.0357 79.3728 15.9517V15.8107C79.3728 15.7596 79.3728 15.7116 79.3728 15.6636C79.3728 12.8344 79.3728 10.0052 79.3728 7.17604C79.3728 7.00197 79.3728 6.8279 79.3728 6.65382V4.23481V3.15435C79.3728 3.15435 79.4667 3.11834 79.4599 3.10633C79.4334 3.06813 79.3998 3.03098 79.3594 2.99529C79.3749 2.98937 79.3874 2.98201 79.396 2.97372C79.4046 2.96543 79.409 2.9564 79.409 2.94727C79.409 2.93813 79.4046 2.92911 79.396 2.92082C79.3874 2.91252 79.3749 2.90516 79.3594 2.89925L79.6478 2.71016L80.6072 2.66815L87.987 2.69817L88.0473 2.72217C88.1278 2.91125 88.2016 3.10033 88.2821 3.29241C88.2821 3.62555 88.2821 3.95869 88.2821 4.29183C88.2217 6.91193 88.148 9.52903 88.148 12.1491C88.148 12.2662 88.8926 12.3862 89.2952 12.5033L98.9291 12.5183C99.023 13.1185 99.1639 13.7188 99.2042 14.319C99.2444 14.9193 99.2042 15.5886 99.2042 16.2608L97.6478 16.3809L97.0305 16.3719Z" fill="#EDA61E"/>
<path d="M99.9623 10.6035C100.043 10.7475 100.13 10.9036 100.217 11.0386C100.123 10.8946 100.036 10.7595 99.9623 10.6035Z" fill="#FFFEFE"/>
<path d="M120.76 24.0731C120.579 24.2862 120.404 24.4993 120.223 24.7094C120.431 24.4993 120.606 24.2862 120.76 24.0731Z" fill="white"/>
<path d="M106.342 4.84104C108.966 3.34041 112.213 2.26896 116.406 1.8848C117.343 1.84757 118.286 1.85966 119.217 1.92081C119.217 3.52149 119.194 5.12216 119.15 6.72283V8.5476L111.159 6.56677C109.75 6.18261 108.308 5.81945 106.94 5.40228C106.671 5.30624 106.55 5.03612 106.342 4.84104ZM113.259 4.56793C112.213 4.23779 111.663 3.92866 111.045 3.90165C110.831 3.88242 110.608 3.88842 110.4 3.91906C110.192 3.9497 110.005 4.00393 109.858 4.07647C109.711 4.14901 109.608 4.23739 109.56 4.33299C109.511 4.42858 109.519 4.52814 109.583 4.62195C109.706 4.77272 109.909 4.90795 110.174 5.01612C110.439 5.12429 110.759 5.2022 111.106 5.24321C111.636 5.26122 112.233 4.91007 113.259 4.56793ZM118.043 3.3044C117.372 3.02828 117.01 2.73416 116.641 2.74016C116.272 2.74616 115.835 3.04029 115.433 3.18435C115.768 3.34042 116.064 3.58652 116.459 3.62554C116.855 3.66455 117.278 3.46947 118.076 3.3044H118.043ZM115.916 6.85789C116.439 6.55776 116.976 6.3897 116.956 6.23363C116.936 6.07757 116.386 5.90949 116.07 5.75042C115.721 5.89448 115.158 6.02053 115.084 6.1886C115.01 6.35668 115.493 6.55776 115.916 6.85789Z" fill="#CF2327"/>
<path d="M100.251 12.3352C100.211 12.2811 100.177 12.2301 100.251 12.3352Z" fill="white"/>
<path d="M79.3594 15.7896V15.9307L78.9971 15.8556L79.3594 15.7896Z" fill="white"/>
<path d="M73.5494 16.3869C73.5966 16.375 73.6497 16.3688 73.7037 16.3688C73.7578 16.3688 73.8109 16.375 73.858 16.3869H73.5494Z" fill="white"/>
<path d="M79.3728 16.1828L79.6881 16.3509C79.5808 16.2938 79.4734 16.2398 79.3728 16.1828Z" fill="white"/>
<path d="M3.40136 39.9498L1.48263 39.8117L1.02648 39.6586L0.838609 39.5686C0.623925 39.1244 0.409241 38.6682 0.167722 38.236C0.167722 38.044 0.167722 37.8519 0.167722 37.6598L0 35.5769L0.0603569 35.5529C0.0939013 34.5295 0.134177 33.5031 0.167722 32.4796C0.194557 29.8125 0.219147 27.1434 0.24151 24.4723C0.24151 23.6859 0.24151 22.8996 0.24151 22.1133C0.328725 21.8282 0.422666 21.54 0.509881 21.2519C1.47596 21.0508 2.42858 20.6877 3.40136 20.6727C7.31264 20.6097 11.224 20.6187 15.1353 20.6727C22.3138 20.7567 27.6473 23.2958 27.6674 26.5852C27.6875 29.8745 22.3003 32.4766 15.2963 32.5877C12.7268 32.6327 10.1506 32.6147 7.58106 32.6147C5.42751 32.6147 5.41409 32.6147 5.40068 33.5451C5.40068 35.2228 5.40068 36.9005 5.40068 38.5782C5.36713 39.2325 4.92428 39.7427 3.40136 39.9498ZM5.41403 22.5635C5.41403 25.2346 5.41403 27.6956 5.41403 30.1567C5.41403 30.5618 5.89711 30.6249 6.63509 30.6219C9.15091 30.6038 11.6667 30.6219 14.1826 30.5798C18.5098 30.4868 21.5623 29.2533 22.3606 27.3475C23.2261 25.2466 20.556 23.1127 16.3227 22.8456C12.8072 22.6235 9.20458 22.6535 5.3671 22.5635H5.41403Z" fill="#EDA61E"/>
<path d="M36.9593 39.2294C36.8184 39.3405 36.6775 39.4545 36.5434 39.5686L36.3489 39.6706C36.3311 39.6691 36.3127 39.6695 36.2954 39.6718C36.278 39.6741 36.2622 39.6782 36.2491 39.6838C36.236 39.6893 36.226 39.6962 36.22 39.7039C36.2141 39.7115 36.2122 39.7196 36.2146 39.7276L35.9463 39.8147L35.8859 39.8327L35.1681 39.9467L33.0481 39.8237L32.7059 39.7186C32.7026 39.708 32.6946 39.6977 32.6823 39.6884C32.67 39.6791 32.6538 39.671 32.6344 39.6646C32.615 39.6581 32.593 39.6535 32.5696 39.6509C32.5461 39.6484 32.5217 39.6479 32.4979 39.6496C32.2269 39.1423 32.0408 38.6267 31.9411 38.107C31.8807 36.3572 31.9411 34.6045 31.9411 32.8548L31.9009 21.567L32.0819 21.1409C32.1423 21.0868 32.2027 21.0328 32.2564 20.9788L33.0414 20.6036L33.3299 20.5436L33.6787 20.4986L35.2285 20.4836L36.6239 20.8677C36.597 20.9158 36.6373 20.9428 36.7447 20.9488C36.8856 21.1709 37.0197 21.39 37.1539 21.6121C37.1539 22.0232 37.2008 22.4314 37.221 22.8396V24.4182C37.221 25.9189 37.1405 27.4195 37.1338 28.9201C37.1338 31.9214 37.145 34.9276 37.1673 37.9389L36.9593 39.2294Z" fill="#EDA61E"/>
<path d="M32.2496 20.9788C32.1959 21.0328 32.1356 21.0869 32.0752 21.1409C32.1356 21.0869 32.2026 21.0328 32.2496 20.9788Z" fill="white"/>
<path d="M66.8406 28.605L67.1157 28.4459L67.4444 28.3049C67.5115 28.3049 67.545 28.2839 67.5517 28.2509C69.0076 27.8697 70.5103 27.5816 72.2479 27.8007L72.9188 27.8787L73.5562 28.0168C76.9509 29.1542 76.649 31.0961 72.8853 31.9544L72.5499 32.0355L71.5972 32.1075L68.7392 31.9154C68.7055 31.9021 68.6662 31.8921 68.6235 31.8859C68.5808 31.8797 68.5357 31.8775 68.491 31.8794L66.5454 31.03C66.3911 30.835 66.2301 30.6429 66.0758 30.4478C66.0087 30.3427 65.9483 30.2347 65.8812 30.1267V29.6405C65.9416 29.5384 66.0087 29.4364 66.0691 29.3403L66.1899 29.1933L66.3509 29.0522L66.485 28.8841C66.5924 28.7851 66.7199 28.6951 66.8406 28.605Z" fill="#CF2327"/>
<path d="M72.2413 22.8546C74.1802 23.6079 74.1735 24.1572 72.2413 24.9555C70.8123 25.0545 69.4101 24.9555 69.0143 24.2742C68.9431 24.0655 68.9746 23.8523 69.1067 23.6496C69.2388 23.4469 69.4683 23.2596 69.7791 23.1007C70.2488 22.8666 71.3893 22.9236 72.2413 22.8546Z" fill="#CF2327"/>
<path d="M37.1471 21.6121C37.013 21.39 36.8788 21.1709 36.7379 20.9488C36.8989 21.1709 37.013 21.39 37.1471 21.6121Z" fill="white"/>
<path d="M56.8376 25.4657C58.1794 24.9585 59.5682 24.6674 61.3058 25.0425L62.0639 25.3036L62.2718 25.4267L62.9427 26.0269L63.0433 26.5882C62.9025 26.7832 62.7549 26.9783 62.614 27.1734L62.3926 27.3205L62.3121 27.3595C62.2383 27.3925 62.1712 27.4285 62.1041 27.4615L60.0512 27.9027C59.9523 27.8847 59.8416 27.8847 59.7426 27.9027L58.8369 27.8757L58.166 27.7737L57.4951 27.5996L56.623 27.2334C56.4687 27.0203 56.3076 26.8073 56.1533 26.5942C56.1533 26.4501 56.1533 26.294 56.1533 26.165L56.8376 25.4657Z" fill="#CF2327"/>
<path d="M82.8882 27.5665C82.8833 27.8557 82.6284 28.1329 82.1769 28.3399C81.7254 28.5469 81.1124 28.6677 80.4662 28.677C80.1204 28.6859 79.7741 28.6636 79.448 28.6114C79.1218 28.5592 78.8224 28.4782 78.5677 28.3732C78.3129 28.2682 78.108 28.1413 77.9651 28.0002C77.8222 27.859 77.7441 27.7064 77.7357 27.5515C77.8257 27.2587 78.1446 26.9895 78.6357 26.7917C79.1269 26.594 79.7588 26.4804 80.4193 26.4711C81.0685 26.4741 81.6894 26.5903 82.1504 26.7948C82.6113 26.9993 82.876 27.2761 82.8882 27.5665Z" fill="#CF2327"/>
<path d="M80.2516 24.2202C80.3297 23.993 80.5991 23.7879 81.0045 23.6467C81.4098 23.5055 81.9206 23.439 82.432 23.4609C82.9692 23.4858 83.4652 23.6009 83.8201 23.7831C84.175 23.9652 84.3622 24.2008 84.344 24.4423C84.2452 24.6924 83.9334 24.9157 83.4743 25.0651C83.0151 25.2146 82.4443 25.2786 81.8819 25.2436C80.6944 25.1356 80.2583 24.7484 80.2516 24.2202Z" fill="#CF2327"/>
</svg>
